<?xml version="1.0" encoding="UTF-8"?>
<svg xmlns="http://www.w3.org/2000/svg" xmlns:xlink="http://www.w3.org/1999/xlink" width="1012.5pt" height="487.499991pt" viewBox="0 0 1012.5 487.499991" version="1.2">
<defs>
<clipPath id="clip1">
  <path d="M 732 0 L 1011.730469 0 L 1011.730469 396 L 732 396 Z M 732 0 "/>
</clipPath>
<filter id="alpha" filterUnits="objectBoundingBox" x="0%" y="0%" width="100%" height="100%">
  <feColorMatrix type="matrix" in="SourceGraphic" values="0 0 0 0 1 0 0 0 0 1 0 0 0 0 1 0 0 0 1 0"/>
</filter>
<mask id="mask0">
  <g filter="url(#alpha)">
<rect x="0" y="0" width="1012.5" height="487.499991" style="fill:rgb(0%,0%,0%);fill-opacity:0.1098;stroke:none;"/>
  </g>
</mask>
<clipPath id="clip3">
  <path d="M 52 0 L 279.3125 0 L 279.3125 395.59375 L 52 395.59375 Z M 52 0 "/>
</clipPath>
<clipPath id="clip2">
  <rect x="0" y="0" width="280" height="396"/>
</clipPath>
<g id="surface5" clip-path="url(#clip2)">
<path style=" stroke:none;fill-rule:nonzero;fill:rgb(96.469116%,96.469116%,91.369629%);fill-opacity:1;" d="M 37.148438 58.710938 C 37.148438 58.710938 36.753906 57.652344 36.222656 57.785156 C 35.691406 57.917969 24.710938 57.253906 21.667969 57.785156 C 18.625 58.316406 4.203125 52.21875 1.691406 43.207031 C -0.824219 34.199219 4.601562 25.1875 10.554688 18.300781 C 16.507812 11.40625 19.683594 13.132812 19.550781 13.132812 C 19.417969 13.132812 24.976562 13.128906 27.09375 13.925781 C 29.210938 14.722656 32.121094 14.589844 33.972656 15.121094 C 35.824219 15.648438 36.621094 17.636719 36.621094 17.769531 C 36.621094 17.902344 41.644531 17.503906 44.160156 16.84375 C 46.675781 16.179688 47.867188 17.769531 47.734375 20.949219 C 47.867188 20.949219 49.453125 21.609375 50.644531 21.609375 C 51.835938 21.609375 51.703125 23.199219 51.703125 23.199219 C 51.703125 23.199219 54.613281 22.804688 54.613281 23.863281 C 54.613281 24.925781 55.011719 25.453125 56.070312 25.71875 C 57.128906 25.984375 60.964844 27.707031 58.980469 32.210938 C 56.996094 36.71875 57.261719 37.113281 59.773438 41.75 C 62.285156 46.390625 64.40625 50.761719 65.597656 51.953125 C 66.785156 53.144531 65.464844 58.445312 65.992188 62.023438 C 65.859375 62.15625 68.242188 61.625 68.902344 64.40625 C 69.035156 64.40625 73.402344 64.804688 79.753906 69.972656 C 86.105469 75.140625 90.335938 77.128906 94.96875 77.394531 C 96.6875 77.394531 98.410156 79.117188 98.410156 79.117188 C 98.410156 79.117188 102.378906 78.457031 103.570312 83.355469 C 103.699219 83.753906 112.300781 82.429688 125.929688 81.898438 C 139.558594 81.367188 151.863281 96.472656 151.863281 96.472656 C 151.863281 96.472656 133.074219 100.847656 126.195312 101.90625 C 119.3125 102.964844 109.257812 102.171875 109.257812 102.171875 C 109.257812 102.171875 129.238281 112.507812 138.5 113.433594 C 141.277344 113.566406 143.660156 115.15625 148.289062 114.890625 C 152.921875 114.625 149.347656 132.914062 144.320312 129.332031 C 143.527344 128.539062 138.765625 127.875 129.367188 126.285156 C 119.976562 124.695312 104.097656 122.707031 104.097656 122.707031 C 104.097656 122.707031 107.273438 135.164062 107.007812 142.714844 C 106.746094 150.265625 105.6875 169.480469 105.6875 170.804688 C 105.6875 172.132812 101.714844 172.527344 101.714844 172.527344 L 100.65625 188.296875 C 100.65625 188.296875 138.5 249.644531 136.117188 256.929688 C 136.382812 257.0625 143.570312 267.722656 144.496094 282.035156 C 145.425781 296.34375 146.96875 332.191406 152.523438 352.464844 C 152.65625 352.730469 156.226562 354.1875 156.226562 358.691406 C 156.226562 358.824219 157.421875 368.632812 159.800781 370.621094 C 160.859375 371.414062 160.066406 372.207031 160.066406 372.207031 C 160.066406 372.207031 169.59375 374.0625 169.855469 374.0625 C 170.121094 374.0625 184.148438 369.292969 183.21875 378.703125 C 183.351562 378.832031 185.335938 380.953125 184.542969 381.75 C 183.75 382.542969 179.648438 387.976562 169.59375 389.699219 C 159.535156 391.421875 145.640625 389.699219 145.640625 389.699219 C 145.640625 389.699219 144.054688 392.613281 142.996094 392.746094 C 141.9375 392.878906 123.28125 393.9375 122.355469 393.9375 C 121.429688 393.9375 120.371094 387.976562 121.957031 388.242188 C 122.222656 388.109375 120.898438 384.398438 120.898438 384.398438 C 120.898438 384.398438 119.972656 385.191406 119.972656 382.808594 C 119.972656 380.425781 121.296875 375.652344 121.296875 375.652344 C 121.296875 375.652344 116.796875 371.015625 121.957031 371.546875 C 122.222656 371.546875 118.253906 366.378906 117.855469 361.34375 C 117.460938 356.308594 113.753906 323.84375 110.710938 305.160156 C 107.667969 286.476562 109.257812 278.265625 109.257812 278.265625 L 99.070312 264.484375 C 99.070312 264.484375 100.65625 285.683594 89.277344 299.332031 C 89.144531 299.464844 81.207031 314.835938 77.105469 320.53125 C 73.003906 326.230469 55.9375 359.621094 55.9375 359.621094 C 55.9375 359.621094 56.730469 363.992188 52.496094 364.257812 C 52.496094 364.390625 54.613281 367.171875 50.511719 370.617188 C 50.777344 370.484375 54.082031 377.242188 54.082031 377.242188 C 54.082031 377.242188 72.605469 376.710938 70.226562 385.324219 C 70.226562 385.324219 71.8125 386.121094 70.886719 388.375 C 70.753906 389.433594 63.609375 394.863281 55.9375 394.335938 C 48.261719 393.804688 35.691406 388.636719 32.78125 386.917969 C 29.871094 385.191406 26.960938 381.617188 26.960938 381.617188 C 26.960938 381.617188 24.578125 383.074219 22.726562 382.277344 C 20.875 381.484375 11.480469 375.917969 10.820312 374.859375 C 10.15625 373.796875 12.671875 369.292969 12.9375 368.761719 C 13.199219 368.234375 14.125 368.628906 14.125 368.628906 L 14.789062 365.449219 C 14.789062 365.449219 11.480469 365.1875 14.65625 361.609375 C 14.65625 361.609375 12.933594 358.164062 18.757812 355.511719 C 18.757812 355.382812 19.417969 344.25 27.886719 336.828125 C 28.679688 336.167969 34.503906 326.757812 42.574219 308.339844 C 50.644531 289.921875 55.671875 279.851562 66.125 272.035156 C 66.125 271.902344 56.996094 234.804688 56.332031 226.589844 C 55.671875 218.371094 51.96875 201.28125 50.910156 200.21875 C 49.851562 199.160156 38.339844 181.273438 47.734375 164.3125 C 47.734375 164.179688 46.011719 162.058594 47.46875 158.746094 C 48.925781 155.433594 51.570312 148.148438 51.570312 148.148438 C 51.570312 148.148438 51.039062 132.378906 44.957031 125.492188 C 43.632812 124.164062 28.285156 107.730469 26.035156 96.734375 C 26.035156 96.867188 14.257812 74.210938 33.046875 62.816406 C 33.179688 62.550781 33.046875 59.507812 37.148438 58.710938 "/>
<g clip-path="url(#clip3)" clip-rule="nonzero">
<path style=" stroke:none;fill-rule:nonzero;fill:rgb(92.939758%,35.688782%,17.649841%);fill-opacity:1;" d="M 173.929688 66.792969 C 173.929688 66.792969 167.3125 61.757812 167.3125 55.261719 C 167.3125 55.128906 173.398438 55.128906 172.339844 50.097656 C 172.339844 49.964844 174.195312 47.84375 174.195312 47.84375 C 174.195312 47.84375 181.605469 47.3125 177.898438 44.132812 C 177.769531 44.265625 183.058594 44.132812 181.207031 37.773438 C 179.355469 31.414062 176.574219 32.605469 176.574219 32.605469 C 176.574219 32.605469 176.839844 19.886719 154.214844 17.101562 C 139.398438 15.644531 131.589844 28.367188 134.238281 32.34375 C 134.238281 32.34375 133.441406 38.304688 133.707031 41.085938 C 133.972656 43.867188 135.691406 46.386719 135.957031 46.917969 C 136.222656 47.445312 134.503906 51.820312 133.441406 53.011719 C 132.386719 54.203125 133.574219 55.925781 135.824219 56.058594 C 136.75 56.191406 136.882812 56.984375 136.488281 57.515625 C 136.089844 58.046875 136.355469 59.769531 138.207031 59.769531 C 138.339844 59.636719 137.542969 60.828125 137.941406 61.492188 C 138.339844 62.15625 139.792969 62.417969 139.792969 63.347656 C 139.792969 64.273438 139.398438 68.117188 143.101562 67.585938 C 144.824219 67.054688 146.9375 65.996094 148.925781 67.054688 C 150.910156 68.117188 155.007812 73.019531 155.007812 73.019531 C 155.007812 73.019531 152.628906 72.488281 151.171875 72.886719 C 151.171875 72.886719 143.234375 69.839844 139.925781 68.910156 C 136.621094 67.984375 131.457031 69.707031 127.226562 67.585938 C 126.035156 66.921875 125.109375 68.910156 125.109375 68.910156 C 125.109375 68.910156 116.640625 65.996094 112.800781 64.800781 C 108.964844 63.613281 106.980469 63.742188 105.789062 62.949219 C 104.601562 62.15625 99.441406 55.660156 94.410156 52.21875 C 89.382812 48.773438 63.714844 35.917969 63.582031 35.652344 C 63.453125 35.386719 67.554688 22.402344 68.082031 21.210938 C 68.613281 20.019531 68.347656 18.5625 69.539062 16.707031 C 70.730469 14.851562 72.316406 12.730469 73.242188 11.9375 C 74.167969 11.140625 73.640625 9.949219 70.863281 10.742188 C 70.992188 10.742188 72.582031 6.371094 73.109375 5.839844 C 73.640625 5.3125 76.152344 2.660156 74.035156 2.792969 C 73.90625 2.527344 76.683594 0.542969 74.167969 0.410156 C 74.300781 0.144531 72.84375 0.0117188 71.125 1.335938 C 71.257812 1.203125 69.140625 0.9375 67.15625 3.71875 C 65.171875 6.503906 64.113281 9.949219 62.921875 12.335938 C 62.660156 12.996094 61.335938 13.65625 61.335938 13.65625 C 61.335938 13.65625 61.996094 8.492188 59.746094 8.492188 C 57.496094 8.492188 56.570312 11.011719 56.441406 12.996094 C 56.308594 14.984375 56.441406 16.839844 55.246094 19.226562 C 54.058594 21.609375 52.734375 26.113281 53 28.894531 C 53.265625 31.679688 55.378906 40.691406 58.160156 43.339844 C 60.9375 45.988281 77.476562 59.636719 81.976562 63.480469 C 86.472656 67.320312 92.027344 70.371094 93.355469 70.503906 C 93.617188 70.769531 98.117188 74.078125 102.21875 75.402344 C 106.320312 76.730469 118.359375 82.691406 120.34375 84.28125 C 120.34375 84.28125 120.078125 85.472656 122.0625 86.402344 C 124.046875 87.328125 129.875 89.976562 133.578125 90.773438 C 135.429688 91.171875 142.441406 95.941406 142.441406 95.941406 C 142.441406 95.941406 142.972656 108.394531 140.722656 116.34375 C 140.0625 119.128906 139.132812 123.769531 144.824219 129.332031 C 150.515625 134.898438 153.425781 135.027344 155.277344 139.664062 C 157.128906 144.304688 166.65625 157.554688 169.035156 162.324219 C 171.417969 167.09375 172.875 172.261719 177.769531 175.042969 C 177.902344 175.308594 176.710938 175.839844 178.296875 178.355469 C 179.886719 180.875 182.664062 185.910156 182.664062 185.910156 C 182.664062 185.910156 172.609375 197.171875 167.976562 215.324219 C 163.347656 233.476562 161.363281 252.6875 161.097656 253.882812 C 160.832031 255.074219 155.277344 265.144531 156.203125 274.683594 C 157.128906 284.222656 159.90625 294.5625 159.644531 298.136719 C 159.378906 301.714844 153.949219 331 147.46875 361.605469 C 145.351562 369.289062 146.015625 377.371094 146.148438 378.167969 C 146.277344 378.964844 149.851562 379.226562 149.851562 379.226562 L 148.128906 382.144531 C 148.128906 382.144531 147.46875 382.277344 145.484375 383.203125 C 143.5 384.132812 136.089844 387.046875 133.707031 387.179688 C 131.328125 387.3125 125.902344 387.707031 128.019531 391.949219 C 128.152344 391.949219 126.300781 393.007812 129.742188 393.539062 C 133.179688 394.070312 146.808594 395.660156 151.570312 394.863281 C 156.332031 394.070312 161.757812 391.152344 163.476562 391.417969 C 165.199219 391.683594 167.710938 394.464844 168.375 395.128906 C 169.035156 395.789062 175.785156 395.128906 176.179688 394.863281 C 176.578125 394.597656 176.972656 390.226562 177.769531 389.5625 C 178.5625 388.902344 178.5625 387.578125 178.5625 387.578125 C 178.5625 387.578125 179.222656 381.214844 176.578125 378.300781 C 176.578125 378.039062 184.515625 377.109375 185.707031 377.238281 C 186.898438 377.371094 185.972656 368.496094 187.691406 361.605469 C 189.410156 354.714844 192.984375 302.640625 190.601562 288.863281 C 188.617188 277.601562 183.851562 269.515625 200.65625 242.484375 C 200.789062 242.75 212.960938 274.152344 217.328125 281.835938 C 221.695312 289.523438 226.855469 296.414062 228.441406 304.097656 C 230.03125 311.785156 244.449219 370.75 245.113281 372.335938 C 245.773438 373.929688 246.964844 373.398438 246.964844 373.398438 L 245.8125 376.4375 C 245.8125 376.4375 242.925781 379.746094 238.429688 380.804688 C 233.929688 381.867188 230.03125 384.261719 231.882812 386.648438 C 232.148438 386.78125 230.425781 388.105469 232.675781 388.902344 C 234.925781 389.695312 247.890625 391.550781 251.199219 389.300781 C 254.507812 387.046875 258.871094 383.070312 260.726562 382.941406 C 264.597656 382.652344 266.789062 385.722656 267.460938 385.855469 C 268.136719 385.984375 275.015625 382.144531 275.277344 381.347656 C 275.542969 380.554688 274.75 376.84375 275.277344 375.519531 C 275.808594 374.191406 273.957031 373.265625 273.957031 373.265625 C 273.957031 373.265625 273.824219 367.535156 270.300781 366.191406 C 270.433594 366.191406 278.058594 362.53125 278.984375 362.136719 C 279.910156 361.738281 275.148438 358.160156 274.484375 344.910156 C 274.351562 340.9375 257.816406 292.703125 249.742188 278.925781 C 241.671875 265.144531 237.570312 262.628906 236.117188 252.292969 C 234.660156 241.957031 230.6875 195.183594 232.410156 187.367188 C 234.128906 179.550781 229.765625 167.890625 213.488281 157.820312 C 213.226562 157.820312 213.886719 156.363281 210.976562 155.433594 C 208.066406 154.507812 205.816406 151.195312 205.289062 151.988281 C 205.417969 152.121094 201.976562 142.582031 201.1875 136.886719 C 200.390625 131.1875 198.140625 106.277344 199.996094 96.46875 C 199.996094 96.339844 206.210938 102.566406 206.742188 103.097656 C 207.269531 103.628906 208.195312 102.566406 208.195312 102.566406 C 208.195312 102.566406 215.476562 108.527344 218.78125 109.585938 C 220.238281 109.984375 226.851562 113.960938 226.851562 113.960938 C 226.851562 113.960938 231.613281 121.117188 237.570312 124.960938 C 243.523438 128.800781 246.964844 132.113281 246.964844 132.113281 C 246.964844 132.113281 246.816406 135.464844 246.816406 136.394531 C 246.816406 137.320312 249.617188 139.3125 250.675781 138.914062 C 251.734375 138.515625 253.578125 136.488281 253.578125 136.488281 C 253.578125 136.488281 256.226562 136.621094 256.621094 135.957031 C 257.015625 135.292969 257.285156 133.96875 257.8125 133.96875 C 258.34375 133.96875 260.0625 131.320312 259.796875 130.523438 C 259.53125 129.726562 260.855469 128.933594 260.988281 128.003906 C 261.121094 127.078125 261.121094 122.707031 260.722656 121.648438 C 260.328125 120.585938 256.492188 115.289062 255.164062 114.757812 C 253.84375 114.226562 252.519531 113.035156 251.59375 111.707031 C 250.667969 110.382812 248.15625 111.179688 248.15625 111.179688 C 248.15625 111.179688 245.246094 106.542969 241.273438 104.820312 C 237.304688 103.097656 235.058594 103.097656 234.128906 102.300781 C 233.203125 101.507812 218.652344 89.316406 218.652344 89.316406 C 218.652344 89.316406 219.972656 87.855469 219.441406 87.0625 C 218.914062 86.269531 204.535156 70.421875 201.359375 68.699219 C 198.183594 66.976562 185.308594 68.910156 185.308594 68.910156 C 185.308594 68.910156 178.296875 67.71875 177.765625 66.921875 C 177.636719 66.789062 175.914062 64.40625 173.929688 66.792969 "/>
</g>
<path style=" stroke:none;fill-rule:nonzero;fill:rgb(96.469116%,96.469116%,91.369629%);fill-opacity:1;" d="M 144.824219 129.332031 C 149.851562 132.914062 157.394531 135.429688 158.847656 135.5625 C 160.304688 135.691406 164.140625 136.222656 164.671875 136.222656 C 167.582031 136.488281 168.902344 136.753906 170.359375 135.691406 C 171.8125 134.632812 169.960938 132.515625 169.960938 132.515625 C 169.960938 132.515625 172.742188 132.515625 173.800781 131.984375 C 174.859375 131.453125 174.195312 128.804688 174.195312 128.804688 C 174.195312 128.804688 176.445312 128.40625 176.578125 126.683594 C 176.710938 124.960938 175.519531 124.03125 175.519531 124.03125 C 175.519531 124.03125 177.238281 123.636719 177.503906 121.648438 C 177.769531 119.660156 175.253906 119.265625 174.59375 118.734375 C 171.152344 115.554688 169.828125 116.214844 167.183594 115.683594 C 164.539062 115.15625 160.4375 113.566406 158.453125 113.035156 C 156.464844 112.507812 153.425781 114.625 148.792969 114.890625 C 144.160156 115.15625 141.78125 113.566406 139 113.433594 C 137.449219 113.277344 135.585938 112.851562 133.574219 112.257812 C 131.765625 116.742188 130.671875 121.503906 129.917969 126.292969 C 139.28125 127.878906 144.03125 128.539062 144.824219 129.332031 "/>
</g>
<clipPath id="clip4">
  <path d="M 113 317 L 329 317 L 329 459 L 113 459 Z M 113 317 "/>
</clipPath>
<clipPath id="clip5">
  <path d="M 108.476562 28.75 L 506.367188 361.554688 L 323.609375 580.050781 L -74.277344 247.242188 Z M 108.476562 28.75 "/>
</clipPath>
<clipPath id="clip6">
  <path d="M 506.238281 361.453125 L 108.351562 28.644531 L -74.402344 247.136719 L 323.484375 579.945312 Z M 506.238281 361.453125 "/>
</clipPath>
<clipPath id="clip7">
  <path d="M 56 116 L 409 116 L 409 480 L 56 480 Z M 56 116 "/>
</clipPath>
<clipPath id="clip8">
  <path d="M 108.476562 28.75 L 506.367188 361.554688 L 323.609375 580.050781 L -74.277344 247.242188 Z M 108.476562 28.75 "/>
</clipPath>
<clipPath id="clip9">
  <path d="M 506.238281 361.453125 L 108.351562 28.644531 L -74.402344 247.136719 L 323.484375 579.945312 Z M 506.238281 361.453125 "/>
</clipPath>
<clipPath id="clip10">
  <path d="M 9 112 L 268 112 L 268 349 L 9 349 Z M 9 112 "/>
</clipPath>
<clipPath id="clip11">
  <path d="M 108.476562 28.75 L 506.367188 361.554688 L 323.609375 580.050781 L -74.277344 247.242188 Z M 108.476562 28.75 "/>
</clipPath>
<clipPath id="clip12">
  <path d="M 506.238281 361.453125 L 108.351562 28.644531 L -74.402344 247.136719 L 323.484375 579.945312 Z M 506.238281 361.453125 "/>
</clipPath>
<clipPath id="clip13">
  <path d="M 27 154.800781 L 199 154.800781 L 199 453.890625 L 27 453.890625 Z M 27 154.800781 "/>
</clipPath>
</defs>
<g id="surface1">
<g clip-path="url(#clip1)" clip-rule="nonzero">
<use xlink:href="#surface5" transform="matrix(1,0,0,1,732,0)" mask="url(#mask0)"/>
</g>
<g clip-path="url(#clip4)" clip-rule="nonzero">
<g clip-path="url(#clip5)" clip-rule="nonzero">
<g clip-path="url(#clip6)" clip-rule="nonzero">
<path style=" stroke:none;fill-rule:nonzero;fill:rgb(27.449036%,54.508972%,56.858826%);fill-opacity:1;" d="M 328.363281 457.75 C 290.40625 465.519531 252.128906 412.546875 226.972656 390.003906 C 191.046875 357.796875 162.433594 347.84375 113.800781 347.757812 C 153.148438 295.796875 220.320312 316.78125 253.175781 361.953125 C 273.625 390.0625 291.660156 448.035156 328.363281 457.75 "/>
</g>
</g>
</g>
<g clip-path="url(#clip7)" clip-rule="nonzero">
<g clip-path="url(#clip8)" clip-rule="nonzero">
<g clip-path="url(#clip9)" clip-rule="nonzero">
<path style=" stroke:none;fill-rule:nonzero;fill:rgb(27.449036%,54.508972%,56.858826%);fill-opacity:1;" d="M 408.640625 477.40625 C 322.871094 376.046875 371.128906 248.710938 221.585938 191.46875 C 163.855469 169.351562 106.957031 168.804688 61.511719 116.550781 L 59.070312 117.167969 C 38.179688 227.984375 169.957031 247.171875 239.46875 279.828125 C 330.824219 322.777344 329.519531 421.46875 406.976562 479.304688 L 408.640625 477.40625 "/>
</g>
</g>
</g>
<g clip-path="url(#clip10)" clip-rule="nonzero">
<g clip-path="url(#clip11)" clip-rule="nonzero">
<g clip-path="url(#clip12)" clip-rule="nonzero">
<path style=" stroke:none;fill-rule:nonzero;fill:rgb(80.389404%,24.708557%,7.839966%);fill-opacity:1;" d="M 267.734375 346.882812 C 217.757812 216.441406 -12.570312 299.347656 42.339844 114.285156 L 38.875 112.4375 C -25.667969 193.667969 23.125 278.207031 126.316406 284.910156 C 181.40625 288.496094 232.84375 289.609375 264.109375 348.378906 L 267.734375 346.882812 "/>
</g>
</g>
</g>
<path style=" stroke:none;fill-rule:nonzero;fill:rgb(96.469116%,96.469116%,91.369629%);fill-opacity:1;" d="M 210.328125 199.167969 C 210.328125 199.167969 210.628906 198.367188 211.027344 198.46875 C 211.429688 198.566406 219.746094 198.066406 222.050781 198.46875 C 224.359375 198.867188 235.277344 194.261719 237.183594 187.453125 C 239.085938 180.644531 234.976562 173.835938 230.46875 168.628906 C 225.960938 163.421875 223.554688 164.726562 223.65625 164.726562 C 223.753906 164.726562 219.546875 164.722656 217.945312 165.324219 C 216.339844 165.925781 214.136719 165.824219 212.730469 166.226562 C 211.328125 166.625 210.730469 168.128906 210.730469 168.226562 C 210.730469 168.328125 206.921875 168.027344 205.015625 167.527344 C 203.113281 167.027344 202.210938 168.226562 202.3125 170.632812 C 202.210938 170.632812 201.007812 171.132812 200.105469 171.132812 C 199.203125 171.132812 199.304688 172.332031 199.304688 172.332031 C 199.304688 172.332031 197.097656 172.035156 197.097656 172.832031 C 197.097656 173.636719 196.800781 174.035156 195.996094 174.234375 C 195.195312 174.4375 192.289062 175.738281 193.792969 179.144531 C 195.296875 182.546875 195.097656 182.847656 193.191406 186.351562 C 191.289062 189.855469 189.683594 193.160156 188.78125 194.0625 C 187.882812 194.960938 188.882812 198.96875 188.480469 201.671875 C 188.582031 201.773438 186.78125 201.371094 186.277344 203.472656 C 186.175781 203.472656 182.871094 203.773438 178.0625 207.679688 C 173.25 211.585938 170.046875 213.085938 166.539062 213.285156 C 165.234375 213.285156 163.933594 214.585938 163.933594 214.585938 C 163.933594 214.585938 160.925781 214.089844 160.023438 217.792969 C 159.925781 218.09375 153.410156 217.089844 143.089844 216.691406 C 132.765625 216.289062 123.449219 227.703125 123.449219 227.703125 C 123.449219 227.703125 137.679688 231.007812 142.886719 231.808594 C 148.097656 232.609375 155.714844 232.007812 155.714844 232.007812 C 155.714844 232.007812 140.582031 239.820312 133.570312 240.519531 C 131.464844 240.621094 129.660156 241.820312 126.152344 241.621094 C 122.644531 241.421875 125.351562 255.242188 129.160156 252.535156 C 129.761719 251.9375 133.367188 251.433594 140.484375 250.234375 C 147.597656 249.03125 159.621094 247.527344 159.621094 247.527344 C 159.621094 247.527344 157.21875 256.941406 157.417969 262.648438 C 157.617188 268.355469 158.417969 282.875 158.417969 283.875 C 158.417969 284.878906 161.425781 285.175781 161.425781 285.175781 L 162.230469 297.09375 C 162.230469 297.09375 133.570312 343.453125 135.371094 348.960938 C 135.171875 349.058594 129.726562 357.113281 129.027344 367.929688 C 128.324219 378.742188 127.152344 405.832031 122.945312 421.152344 C 122.84375 421.351562 120.140625 422.453125 120.140625 425.859375 C 120.140625 425.960938 119.238281 433.371094 117.433594 434.871094 C 116.632812 435.472656 117.234375 436.074219 117.234375 436.074219 C 117.234375 436.074219 110.019531 437.476562 109.820312 437.476562 C 109.621094 437.476562 98.996094 433.867188 99.699219 440.980469 C 99.597656 441.078125 98.09375 442.679688 98.695312 443.28125 C 99.296875 443.882812 102.402344 447.988281 110.019531 449.289062 C 117.636719 450.589844 128.160156 449.289062 128.160156 449.289062 C 128.160156 449.289062 129.359375 451.492188 130.164062 451.59375 C 130.964844 451.691406 145.09375 452.492188 145.796875 452.492188 C 146.496094 452.492188 147.296875 447.988281 146.097656 448.1875 C 145.894531 448.085938 146.898438 445.285156 146.898438 445.285156 C 146.898438 445.285156 147.601562 445.882812 147.601562 444.082031 C 147.601562 442.28125 146.597656 438.675781 146.597656 438.675781 C 146.597656 438.675781 150.003906 435.171875 146.097656 435.570312 C 145.894531 435.570312 148.902344 431.667969 149.203125 427.863281 C 149.503906 424.058594 152.308594 399.523438 154.613281 385.40625 C 156.917969 371.289062 155.714844 365.082031 155.714844 365.082031 L 163.429688 354.667969 C 163.429688 354.667969 162.230469 370.6875 170.847656 381.003906 C 170.945312 381.101562 176.957031 392.714844 180.066406 397.019531 C 183.171875 401.328125 196.097656 426.558594 196.097656 426.558594 C 196.097656 426.558594 195.496094 429.863281 198.703125 430.0625 C 198.703125 430.164062 197.097656 432.265625 200.207031 434.871094 C 200.007812 434.769531 197.5 439.875 197.5 439.875 C 197.5 439.875 183.472656 439.476562 185.277344 445.984375 C 185.277344 445.984375 184.074219 446.585938 184.773438 448.289062 C 184.875 449.089844 190.285156 453.195312 196.097656 452.792969 C 201.910156 452.394531 211.429688 448.488281 213.632812 447.1875 C 215.839844 445.882812 218.042969 443.179688 218.042969 443.179688 C 218.042969 443.179688 219.847656 444.28125 221.25 443.683594 C 222.652344 443.082031 229.769531 438.875 230.269531 438.074219 C 230.769531 437.273438 228.867188 433.867188 228.664062 433.46875 C 228.464844 433.066406 227.765625 433.367188 227.765625 433.367188 L 227.261719 430.964844 C 227.261719 430.964844 229.769531 430.765625 227.363281 428.0625 C 227.363281 428.0625 228.664062 425.457031 224.257812 423.457031 C 224.257812 423.355469 223.753906 414.945312 217.34375 409.335938 C 216.742188 408.835938 212.332031 401.726562 206.21875 387.808594 C 200.105469 373.890625 196.296875 366.28125 188.382812 360.371094 C 188.382812 360.273438 195.296875 332.238281 195.796875 326.03125 C 196.296875 319.820312 199.105469 306.90625 199.90625 306.105469 C 200.707031 305.304688 209.425781 291.785156 202.3125 278.96875 C 202.3125 278.867188 203.613281 277.265625 202.511719 274.761719 C 201.410156 272.261719 199.40625 266.753906 199.40625 266.753906 C 199.40625 266.753906 199.804688 254.835938 204.414062 249.632812 C 205.417969 248.628906 217.042969 236.210938 218.746094 227.902344 C 218.746094 228.003906 227.664062 210.878906 213.433594 202.269531 C 213.332031 202.070312 213.433594 199.769531 210.328125 199.167969 "/>
<g clip-path="url(#clip13)" clip-rule="nonzero">
<path style=" stroke:none;fill-rule:nonzero;fill:rgb(92.939758%,35.688782%,17.649841%);fill-opacity:1;" d="M 106.734375 205.277344 C 106.734375 205.277344 111.746094 201.46875 111.746094 196.5625 C 111.746094 196.460938 107.136719 196.460938 107.9375 192.660156 C 107.9375 192.558594 106.535156 190.957031 106.535156 190.957031 C 106.535156 190.957031 100.921875 190.554688 103.726562 188.152344 C 103.828125 188.253906 99.820312 188.152344 101.222656 183.347656 C 102.625 178.539062 104.730469 179.441406 104.730469 179.441406 C 104.730469 179.441406 104.53125 169.828125 121.664062 167.726562 C 132.886719 166.625 138.800781 176.238281 136.796875 179.242188 C 136.796875 179.242188 137.398438 183.746094 137.195312 185.847656 C 136.996094 187.953125 135.695312 189.855469 135.492188 190.257812 C 135.292969 190.65625 136.59375 193.960938 137.398438 194.859375 C 138.199219 195.761719 137.296875 197.0625 135.59375 197.164062 C 134.890625 197.265625 134.792969 197.863281 135.09375 198.265625 C 135.394531 198.667969 135.191406 199.96875 133.789062 199.96875 C 133.691406 199.867188 134.292969 200.769531 133.992188 201.269531 C 133.691406 201.769531 132.585938 201.96875 132.585938 202.671875 C 132.585938 203.371094 132.886719 206.277344 130.082031 205.875 C 128.78125 205.472656 127.175781 204.671875 125.671875 205.472656 C 124.167969 206.277344 121.066406 209.980469 121.066406 209.980469 C 121.066406 209.980469 122.867188 209.578125 123.96875 209.878906 C 123.96875 209.878906 129.980469 207.578125 132.488281 206.875 C 134.992188 206.175781 138.902344 207.476562 142.105469 205.875 C 143.007812 205.375 143.710938 206.875 143.710938 206.875 C 143.710938 206.875 150.125 204.671875 153.03125 203.769531 C 155.933594 202.871094 157.4375 202.972656 158.339844 202.371094 C 159.242188 201.769531 163.148438 196.863281 166.957031 194.261719 C 170.765625 191.65625 190.207031 181.945312 190.304688 181.742188 C 190.40625 181.542969 187.300781 171.730469 186.898438 170.832031 C 186.5 169.929688 186.699219 168.828125 185.796875 167.425781 C 184.894531 166.023438 183.695312 164.421875 182.992188 163.820312 C 182.289062 163.222656 182.691406 162.320312 184.792969 162.921875 C 184.695312 162.921875 183.492188 159.617188 183.089844 159.214844 C 182.691406 158.816406 180.785156 156.8125 182.390625 156.914062 C 182.488281 156.710938 180.386719 155.210938 182.289062 155.109375 C 182.191406 154.910156 183.292969 154.808594 184.597656 155.8125 C 184.496094 155.710938 186.097656 155.511719 187.601562 157.613281 C 189.105469 159.714844 189.90625 162.320312 190.808594 164.121094 C 191.007812 164.621094 192.011719 165.121094 192.011719 165.121094 C 192.011719 165.121094 191.507812 161.21875 193.210938 161.21875 C 194.917969 161.21875 195.617188 163.121094 195.71875 164.621094 C 195.816406 166.125 195.71875 167.527344 196.621094 169.328125 C 197.523438 171.128906 198.523438 174.535156 198.324219 176.636719 C 198.121094 178.738281 196.519531 185.550781 194.414062 187.550781 C 192.3125 189.554688 179.785156 199.867188 176.378906 202.769531 C 172.972656 205.675781 168.761719 207.980469 167.757812 208.078125 C 167.558594 208.277344 164.152344 210.78125 161.046875 211.78125 C 157.941406 212.785156 148.820312 217.289062 147.320312 218.492188 C 147.320312 218.492188 147.519531 219.394531 146.015625 220.09375 C 144.511719 220.792969 140.101562 222.796875 137.296875 223.398438 C 135.890625 223.699219 130.582031 227.300781 130.582031 227.300781 C 130.582031 227.300781 130.179688 236.714844 131.882812 242.722656 C 132.382812 244.824219 133.089844 248.332031 128.777344 252.535156 C 124.46875 256.742188 122.265625 256.839844 120.863281 260.34375 C 119.457031 263.847656 112.242188 273.863281 110.441406 277.464844 C 108.636719 281.070312 107.535156 284.976562 103.824219 287.078125 C 103.726562 287.277344 104.628906 287.679688 103.425781 289.582031 C 102.222656 291.484375 100.121094 295.289062 100.121094 295.289062 C 100.121094 295.289062 107.734375 303.800781 111.242188 317.515625 C 114.75 331.234375 116.253906 345.753906 116.453125 346.65625 C 116.652344 347.554688 120.863281 355.164062 120.160156 362.375 C 119.460938 369.585938 117.355469 377.394531 117.554688 380.097656 C 117.753906 382.800781 121.867188 404.929688 126.773438 428.058594 C 128.378906 433.867188 127.878906 439.976562 127.777344 440.574219 C 127.675781 441.175781 124.972656 441.378906 124.972656 441.378906 L 126.273438 443.582031 C 126.273438 443.582031 126.773438 443.679688 128.277344 444.382812 C 129.78125 445.082031 135.390625 447.285156 137.195312 447.386719 C 139 447.484375 143.109375 447.785156 141.507812 450.988281 C 141.40625 450.988281 142.808594 451.789062 140.203125 452.191406 C 137.597656 452.59375 127.277344 453.792969 123.667969 453.191406 C 120.0625 452.59375 115.953125 450.390625 114.652344 450.589844 C 113.347656 450.789062 111.445312 452.890625 110.941406 453.390625 C 110.441406 453.890625 105.332031 453.390625 105.03125 453.191406 C 104.730469 452.992188 104.429688 449.6875 103.828125 449.1875 C 103.226562 448.6875 103.226562 447.6875 103.226562 447.6875 C 103.226562 447.6875 102.726562 442.878906 104.730469 440.675781 C 104.730469 440.476562 98.71875 439.773438 97.816406 439.875 C 96.914062 439.976562 97.613281 433.269531 96.3125 428.058594 C 95.007812 422.851562 92.304688 383.5 94.109375 373.089844 C 95.609375 364.578125 99.21875 358.46875 86.492188 338.042969 C 86.394531 338.242188 77.171875 361.972656 73.867188 367.78125 C 70.558594 373.589844 66.652344 378.796875 65.449219 384.605469 C 64.246094 390.410156 53.324219 434.96875 52.824219 436.171875 C 52.320312 437.371094 51.421875 436.972656 51.421875 436.972656 L 52.292969 439.269531 C 52.292969 439.269531 54.480469 441.769531 57.886719 442.570312 C 61.292969 443.371094 64.246094 445.179688 62.84375 446.984375 C 62.644531 447.085938 63.945312 448.085938 62.242188 448.6875 C 60.539062 449.285156 50.71875 450.691406 48.214844 448.988281 C 45.710938 447.285156 42.402344 444.28125 41 444.183594 C 38.066406 443.964844 36.40625 446.285156 35.898438 446.382812 C 35.386719 446.484375 30.175781 443.582031 29.976562 442.980469 C 29.777344 442.378906 30.378906 439.574219 29.976562 438.574219 C 29.578125 437.570312 30.980469 436.871094 30.980469 436.871094 C 30.980469 436.871094 31.078125 432.539062 33.746094 431.527344 C 33.648438 431.527344 27.871094 428.761719 27.171875 428.460938 C 26.46875 428.160156 30.074219 425.457031 30.578125 415.445312 C 30.679688 412.441406 43.203125 375.992188 49.316406 365.578125 C 55.429688 355.164062 58.535156 353.265625 59.636719 345.453125 C 60.738281 337.644531 63.746094 302.296875 62.445312 296.390625 C 61.140625 290.484375 64.449219 281.671875 76.773438 274.0625 C 76.972656 274.0625 76.472656 272.960938 78.675781 272.261719 C 80.882812 271.558594 82.585938 269.054688 82.984375 269.65625 C 82.886719 269.757812 85.492188 262.546875 86.09375 258.242188 C 86.691406 253.9375 88.398438 235.113281 86.996094 227.703125 C 86.996094 227.601562 82.285156 232.308594 81.882812 232.710938 C 81.484375 233.109375 80.78125 232.308594 80.78125 232.308594 C 80.78125 232.308594 75.269531 236.816406 72.765625 237.613281 C 71.664062 237.914062 66.652344 240.917969 66.652344 240.917969 C 66.652344 240.917969 63.046875 246.328125 58.535156 249.230469 C 54.027344 252.132812 51.421875 254.636719 51.421875 254.636719 C 51.421875 254.636719 51.53125 257.171875 51.53125 257.871094 C 51.53125 258.574219 49.410156 260.078125 48.609375 259.777344 C 47.808594 259.476562 46.410156 257.941406 46.410156 257.941406 C 46.410156 257.941406 44.40625 258.042969 44.105469 257.539062 C 43.808594 257.039062 43.605469 256.039062 43.203125 256.039062 C 42.804688 256.039062 41.5 254.039062 41.703125 253.4375 C 41.902344 252.835938 40.898438 252.234375 40.800781 251.53125 C 40.699219 250.832031 40.699219 247.527344 41 246.726562 C 41.300781 245.925781 44.207031 241.921875 45.210938 241.519531 C 46.210938 241.121094 47.210938 240.21875 47.914062 239.214844 C 48.617188 238.214844 50.519531 238.816406 50.519531 238.816406 C 50.519531 238.816406 52.722656 235.3125 55.730469 234.011719 C 58.738281 232.710938 60.441406 232.710938 61.140625 232.109375 C 61.84375 231.507812 72.863281 222.296875 72.863281 222.296875 C 72.863281 222.296875 71.863281 221.195312 72.265625 220.59375 C 72.664062 219.992188 83.554688 208.019531 85.960938 206.714844 C 88.363281 205.414062 98.117188 206.875 98.117188 206.875 C 98.117188 206.875 103.429688 205.976562 103.828125 205.375 C 103.929688 205.273438 105.230469 203.472656 106.734375 205.277344 "/>
</g>
<path style=" stroke:none;fill-rule:nonzero;fill:rgb(96.469116%,96.469116%,91.369629%);fill-opacity:1;" d="M 128.777344 252.535156 C 124.972656 255.242188 119.257812 257.140625 118.15625 257.242188 C 117.054688 257.34375 114.148438 257.742188 113.746094 257.742188 C 111.542969 257.945312 110.539062 258.144531 109.4375 257.34375 C 108.335938 256.542969 109.738281 254.941406 109.738281 254.941406 C 109.738281 254.941406 107.636719 254.941406 106.832031 254.539062 C 106.03125 254.136719 106.53125 252.136719 106.53125 252.136719 C 106.53125 252.136719 104.828125 251.835938 104.730469 250.535156 C 104.628906 249.230469 105.53125 248.53125 105.53125 248.53125 C 105.53125 248.53125 104.226562 248.230469 104.027344 246.726562 C 103.828125 245.226562 105.730469 244.925781 106.234375 244.527344 C 108.839844 242.121094 109.839844 242.625 111.84375 242.222656 C 113.847656 241.820312 116.953125 240.621094 118.457031 240.222656 C 119.960938 239.820312 122.265625 241.421875 125.773438 241.621094 C 129.28125 241.820312 131.082031 240.621094 133.1875 240.519531 C 134.363281 240.402344 135.773438 240.082031 137.300781 239.632812 C 138.667969 243.023438 139.496094 246.621094 140.066406 250.238281 C 132.976562 251.4375 129.378906 251.9375 128.777344 252.535156 "/>
</g>
</svg>
